# xmcd
#
# Track frame offsets: 
#        150
#        12830
#        25090
#        39143
#        51350
#        64950
#        81800
#        96230
#        111110
#        125799
#        140340
#        153150
#        166575
#        180925
#        194097
#        208272
#        223049
#        234740
#        247472
#        260665
#        276270
#        287290
#
# Disc length: 4005 seconds
#
# Revision: 1
# Processed by: cddbd v1.5.2PL0 Copyright (c) Steve Scherf et al.
# Submitted via: ExactAudioCopy v1.0b3
#
DISCID=440fa316
DTITLE=Wardell Gray - Bebop CD045  Wardell Gray vol.3 1950-51
DYEAR=1950
DGENRE=Jazz
TTITLE0=Joe Swanson and His Orchestra - Trust
TTITLE1=Joe Swanson and His Orchestra - East Of The Sun
TTITLE2=Wardell Gray Quartet - A Sinner Kissed An Angel
TTITLE3=Wardell Gray Quartet - Blue Gray
TTITLE4=Wardell Gray Quartet - Grayhound
TTITLE5=Wardell Gray Quartet - Treadin' With Treadwell
TTITLE6=Count Basie Combo - One O'Clock Jump
TTITLE7=Count Basie Combo - Basie's Conversation
TTITLE8=Count Basie Combo - I Cried For You
TTITLE9=Count Basie Combo - Basie Boogie
TTITLE10=Count Basie Octet - Song Of The Islands
TTITLE11=Count Basie Octet - These Foolish Things
TTITLE12=Count Basie Octet - I'm Confessin'
TTITLE13=Count Basie Octet - One O'Clock Jump
TTITLE14=Count Basie Octet - I Ain't Got Nobody
TTITLE15=Count Basie Octet - Little White Lies
TTITLE16=Count Basie Octet - I'll Remember April
TTITLE17=Count Basie Octet - Tootie
TTITLE18=Count Basie and His Orchestra - Howitz
TTITLE19=Count Basie and His Orchestra - Nails
TTITLE20=Count Basie and His Orchestra - Little Pony
TTITLE21=Count Basie and His Orchestra - Beaver Junction
EXTD=YEAR: 2008
EXTT0=
EXTT1=
EXTT2=
EXTT3=
EXTT4=
EXTT5=
EXTT6=
EXTT7=
EXTT8=
EXTT9=
EXTT10=
EXTT11=
EXTT12=
EXTT13=
EXTT14=
EXTT15=
EXTT16=
EXTT17=
EXTT18=
EXTT19=
EXTT20=
EXTT21=
PLAYORDER=
